# xmcd
#
# Track frame offsets:
#	151
#	13636
#	27421
#	39941
#	52869
#	63930
#	78258
#	89544
#	104476
#	119453
#	131715
#	144797
#	158003
#	171045
#	183935
#	196206
#	208999
#	223014
#
# Disc length: 3143 seconds
#
# Revision: 1
# Processed by: cddbd v1.5PL3 Copyright (c) Steve Scherf et al.
# Submitted via: audiograbber 1.80
#
DISCID=f20c4512
DTITLE=DINAH WASHINGTON - The best of The Queen of the Blues
DYEAR=1900
DGENRE=
TTITLE0=Baby Get Lost
TTITLE1=It isn´t Fair
TTITLE2=I´ll Never Be Free
TTITLE3=I Wanna Be Loved
TTITLE4=Good Daddy Blues
TTITLE5=Long Jhon Blues
TTITLE6=I Only Know
TTITLE7=Resolution Blues
TTITLE8=Record Ban Blues
TTITLE9=A Slick Chick
TTITLE10=That´s When a Woman Loves a heel
TTITLE11=Postman Blues
TTITLE12=Evil Gal Blues
TTITLE13=Homeward Bound
TTITLE14=Oo-Wee-Walkie-Talkie
TTITLE15=Wise Woman Blues
TTITLE16=My Lovin´ Papa
TTITLE17=Blues for a Day
EXTD=
EXTT0=
EXTT1=
EXTT2=
EXTT3=
EXTT4=
EXTT5=
EXTT6=
EXTT7=
EXTT8=
EXTT9=
EXTT10=
EXTT11=
EXTT12=
EXTT13=
EXTT14=
EXTT15=
EXTT16=
EXTT17=
PLAYORDER=
